<?xml version="1.0" standalone="no"?>
<!DOCTYPE svg PUBLIC "-//W3C//DTD SVG 20010904//EN"
 "http://www.w3.org/TR/2001/REC-SVG-20010904/DTD/svg10.dtd">
<svg version="1.0" xmlns="http://www.w3.org/2000/svg"
 width="311.000000pt" height="424.000000pt" viewBox="0 0 311.000000 424.000000"
 preserveAspectRatio="xMidYMid meet">

<g transform="translate(0.000000,424.000000) scale(0.100000,-0.100000)"
fill="#000000" stroke="none">
<path d="M1440 4013 l0 -228 -44 -18 c-49 -20 -128 -93 -153 -141 -9 -17 -22
-49 -28 -70 -12 -39 -13 -40 -109 -73 -54 -18 -136 -50 -182 -73 -87 -42 -265
-157 -323 -210 -18 -16 -37 -30 -41 -30 -4 0 -29 10 -56 22 -38 17 -68 22
-134 23 -75 0 -93 -4 -150 -31 -150 -72 -229 -219 -201 -374 34 -198 240 -327
439 -276 209 53 324 271 246 467 -17 40 -17 40 12 70 36 37 181 138 251 173
66 33 189 82 229 90 28 6 33 3 59 -38 32 -51 93 -105 156 -138 36 -19 60 -23
134 -23 81 0 95 3 143 29 64 36 144 112 162 155 9 22 19 31 35 31 34 0 170
-47 262 -90 71 -33 256 -150 267 -169 3 -4 -10 -36 -27 -71 -27 -55 -32 -75
-32 -140 0 -127 64 -228 189 -299 57 -33 60 -34 165 -32 99 2 179 39 250 117
60 65 76 111 76 214 0 60 -6 86 -27 132 -66 142 -216 218 -378 189 l-68 -12
-64 51 c-154 125 -357 223 -575 280 -24 6 -43 16 -43 23 0 7 -11 35 -24 64
-39 82 -116 148 -208 177 -16 5 -18 25 -18 231 l0 225 -95 0 -95 0 0 -227z"/>
<path d="M1470 2984 c-92 -12 -202 -38 -270 -66 -285 -117 -482 -365 -562
-708 -29 -126 -37 -451 -14 -590 56 -329 197 -569 417 -708 l66 -42 6 -136 c4
-76 7 -212 7 -303 0 -191 -9 -221 -78 -283 -50 -45 -103 -61 -202 -62 -84 0
-139 15 -187 51 -42 31 -42 57 -1 74 41 17 95 64 114 100 37 73 -4 176 -86
210 -124 52 -264 -69 -235 -203 24 -109 117 -199 249 -241 92 -28 276 -30 375
-3 142 39 247 120 297 229 28 60 29 68 34 262 l5 200 185 6 c124 4 205 12 245
23 122 34 193 59 298 109 l107 50 0 164 c0 174 -5 188 -46 142 -26 -29 -126
-100 -201 -142 -131 -74 -259 -107 -419 -107 -69 0 -116 5 -140 15 l-35 14 3
68 3 68 220 6 c246 7 323 20 443 75 257 117 402 343 402 624 0 315 -192 542
-516 612 -91 20 -130 22 -469 22 l-370 1 -5 -650 -5 -650 -33 45 c-104 139
-159 318 -169 545 -23 518 195 875 570 935 90 15 215 9 308 -15 100 -25 255
-107 352 -185 47 -38 91 -70 97 -70 6 0 10 60 10 168 l0 169 -107 51 c-112 52
-234 93 -338 112 -66 12 -270 21 -325 14z m410 -726 c75 -20 148 -59 193 -104
147 -147 136 -459 -21 -611 -92 -90 -163 -110 -436 -125 -175 -9 -210 -9 -217
3 -11 17 -12 842 -1 853 12 14 421 -1 482 -16z"/>
</g>
</svg>
